# xmcd CD database file
#
# Track frame offsets:
#	150
#	10119
#	22234
#	35967
#	52792
#	63429
#	80498
#	95928
#	107317
#	119559
#	130842
#	142605
#
# Disc length: 2074 seconds
#
# Revision: 0
# Processed by: cddbd v1.5PL3 Copyright (c) Steve Scherf et al.
# Submitted via: CDex 1.51
#
DISCID=9e08180c
DTITLE=Alberto Vazquez - Con Mariachi - Disco 3
DYEAR=1900
DGENRE=Español
TTITLE0=Los barandales del puente
TTITLE1=Viva Mexico
TTITLE2=Te extraño
TTITLE3=La carcel de Cananea
TTITLE4=Invitame
TTITLE5=Anillo de compromiso
TTITLE6=Brindo por ella
TTITLE7=La embarcacion
TTITLE8=Corrido de Chihuahua
TTITLE9=No volvere
TTITLE10=Reconciliacion
TTITLE11=Que se repita esta noche
EXTD=
EXTT0=
EXTT1=
EXTT2=
EXTT3=
EXTT4=
EXTT5=
EXTT6=
EXTT7=
EXTT8=
EXTT9=
EXTT10=
EXTT11=
PLAYORDER=
